<svg width="18" height="19" viewBox="0 0 18 19" fill="none" xmlns="http://www.w3.org/2000/svg">
<path d="M6.3 13.25L9 10.55L11.7 13.25L12.75 12.2L10.05 9.5L12.75 6.8L11.7 5.75L9 8.45L6.3 5.75L5.25 6.8L7.95 9.5L5.25 12.2L6.3 13.25ZM9 17C7.9625 17 6.9875 16.803 6.075 16.409C5.1625 16.015 4.36875 15.4808 3.69375 14.8063C3.01875 14.1313 2.4845 13.3375 2.091 12.425C1.6975 11.5125 1.5005 10.5375 1.5 9.5C1.5 8.4625 1.697 7.4875 2.091 6.575C2.485 5.6625 3.01925 4.86875 3.69375 4.19375C4.36875 3.51875 5.1625 2.9845 6.075 2.591C6.9875 2.1975 7.9625 2.0005 9 2C10.0375 2 11.0125 2.197 11.925 2.591C12.8375 2.985 13.6313 3.51925 14.3063 4.19375C14.9813 4.86875 15.5157 5.6625 15.9097 6.575C16.3037 7.4875 16.5005 8.4625 16.5 9.5C16.5 10.5375 16.303 11.5125 15.909 12.425C15.515 13.3375 14.9808 14.1313 14.3063 14.8063C13.6313 15.4813 12.8375 16.0157 11.925 16.4097C11.0125 16.8037 10.0375 17.0005 9 17Z" fill="#D15454"/>
</svg>
