<svg width="18" height="19" viewBox="0 0 18 19" fill="none" xmlns="http://www.w3.org/2000/svg">
<path d="M3.3 15.0688C3.05 15.1688 2.8125 15.1468 2.5875 15.0028C2.3625 14.8588 2.25 14.6496 2.25 14.3751V11.5813C2.25 11.4063 2.3 11.2501 2.4 11.1126C2.5 10.9751 2.6375 10.8876 2.8125 10.8501L8.25 9.5001L2.8125 8.1501C2.6375 8.1126 2.5 8.0251 2.4 7.8876C2.3 7.7501 2.25 7.59385 2.25 7.41885V4.6251C2.25 4.3501 2.3625 4.1406 2.5875 3.9966C2.8125 3.8526 3.05 3.83085 3.3 3.93135L14.85 8.80635C15.1625 8.94385 15.3187 9.1751 15.3187 9.5001C15.3187 9.8251 15.1625 10.0563 14.85 10.1938L3.3 15.0688Z" fill="#903564"/>
</svg>
